<?xml version="1.0" standalone="no"?><!DOCTYPE svg PUBLIC "-//W3C//DTD SVG 1.1//EN" "http://www.w3.org/Graphics/SVG/1.1/DTD/svg11.dtd"><svg t="1737803334136" class="icon" viewBox="0 0 1024 1024" version="1.1" xmlns="http://www.w3.org/2000/svg" p-id="4178" xmlns:xlink="http://www.w3.org/1999/xlink" width="200" height="200"><path d="M268.953978 844.492378l37.068781 21.657589A407.193396 407.193396 0 0 0 512.000256 921.599539a409.599795 409.599795 0 1 0-409.599795-409.599795 407.039796 407.039796 0 0 0 55.500772 206.028697l21.606389 37.068781-33.433583 122.931139 122.879939-33.535983zM0.205312 1023.999488l69.222365-254.361473A509.644545 509.644545 0 0 1 0.000512 511.999744C0.000512 229.222285 229.222797 0 512.000256 0s511.999744 229.222285 511.999744 511.999744-229.222285 511.999744-511.999744 511.999744a509.644545 509.644545 0 0 1-257.535871-69.375965L0.205312 1023.999488zM327.219548 271.769464c6.860797-0.512 13.772793-0.512 20.63359-0.2048 2.764799 0.2048 5.529597 0.512 8.294396 0.8192 8.140796 0.9216 17.100791 5.887997 20.12159 12.748793 15.257592 34.611183 30.105585 69.478365 44.441578 104.447948 3.174398 7.782396 1.279999 17.766391-4.761598 27.494386a224.255888 224.255888 0 0 1-13.465593 19.046391c-5.785597 7.423996-18.227191 21.043189-18.227191 21.043189s-5.068797 6.041597-3.123199 13.567994c0.7168 2.867199 3.071998 7.014396 5.222398 10.495994l3.020798 4.863998c13.107193 21.862389 30.719985 44.031978 52.223974 64.921567 6.143997 5.939197 12.134394 12.031994 18.585591 17.715192 23.961588 21.145589 51.097574 38.399981 80.38396 51.199974l0.256 0.1024c4.351998 1.894399 6.553597 2.918399 12.902393 5.631997 3.174398 1.331199 6.451197 2.508799 9.779195 3.379198a17.919991 17.919991 0 0 0 18.790391-6.655996c37.068781-44.902378 40.44798-47.820776 40.755179-47.820776v0.1024a24.678388 24.678388 0 0 1 19.353591-6.502397c3.071998 0.2048 6.195197 0.768 9.062395 2.047999 27.187186 12.441594 71.679964 31.846384 71.679964 31.846384l29.798386 13.363193c5.017597 2.406399 9.574395 8.089596 9.727995 13.567994 0.2048 3.430398 0.512 8.959996-0.6656 19.09759-1.638399 13.260793-5.631997 29.183985-9.625595 37.529581a59.13597 59.13597 0 0 1-10.751995 15.462392c-5.119997 5.427197-10.803195 10.342395-16.895991 14.745593a189.951905 189.951905 0 0 1-6.399997 4.607998 257.228671 257.228671 0 0 1-19.60959 11.263994 101.887949 101.887949 0 0 1-42.649579 11.775994c-9.471995 0.512-18.943991 1.228799-28.467186 0.7168-0.4096 0-29.081585-4.454398-29.081585-4.454398a483.737358 483.737358 0 0 1-196.607902-104.755147c-11.571194-10.188795-22.271989-21.145589-33.228783-32.051184-45.567977-45.311977-79.97436-94.207953-100.86395-140.39033A177.715111 177.715111 0 0 1 250.880387 390.143805a139.77593 139.77593 0 0 1 28.876785-86.015957c3.737598-4.812798 7.270396-9.830395 13.363193-15.615992 6.502397-6.143997 10.598395-9.420795 15.052793-11.673594a49.203175 49.203175 0 0 1 18.99519-5.119998l0.0512 0.0512z" fill="#515151" p-id="4179"></path></svg>